<!-- Generated by IcoMoon.io -->
<svg version="1.1" xmlns="http://www.w3.org/2000/svg" width="768" height="768" viewBox="0 0 768 768">
<title></title>
<g id="icomoon-ignore">
</g>
<path fill="#000" d="M384 408q39 0 73.5 8.25t61.5 20.25 42 36 15 51v52.5h-384v-51q0-28.5 15-52.5t42-36 61.5-20.25 73.5-8.25zM127.5 415.5q27 0 45.75-18.75t18.75-44.25q0-27-18.75-45.75t-45.75-18.75q-25.5 0-44.25 18.75t-18.75 45.75q0 25.5 18.75 44.25t44.25 18.75zM163.5 451.5q-7.5-1.5-16.5-2.25t-19.5-0.75q-24 0-45.75 4.5t-42.75 13.5q-18 7.5-28.5 24t-10.5 36v49.5h144v-51q0-39 19.5-73.5zM640.5 415.5q25.5 0 44.25-18.75t18.75-44.25q0-27-18.75-45.75t-44.25-18.75q-27 0-45.75 18.75t-18.75 45.75q0 25.5 18.75 44.25t45.75 18.75zM768 526.5q0-19.5-10.5-36t-28.5-24q-21-9-42.75-13.5t-45.75-4.5q-10.5 0-19.5 0.75t-16.5 2.25q19.5 34.5 19.5 73.5v51h144v-49.5zM384 192q27 0 48.75 12.75t34.5 34.5 12.75 48.75-12.75 48.75-34.5 34.5-48.75 12.75-48.75-12.75-34.5-34.5-12.75-48.75 12.75-48.75 34.5-34.5 48.75-12.75z"></path>
</svg>
